<mxfile host="app.diagrams.net" modified="2024-02-28T11:11:55.308Z" agent="Mozilla/5.0 (Macintosh; Intel Mac OS X 10_15_7) AppleWebKit/537.36 (KHTML, like Gecko) Chrome/121.0.0.0 Safari/537.36" etag="PS0h27lAq3yCY762VWg4" version="23.1.1" type="github">
  <diagram name="Page-1" id="74e2e168-ea6b-b213-b513-2b3c1d86103e">
    <mxGraphModel dx="2089" dy="566" grid="1" gridSize="10" guides="1" tooltips="1" connect="1" arrows="1" fold="1" page="1" pageScale="1" pageWidth="1100" pageHeight="850" background="none" math="0" shadow="0">
      <root>
        <mxCell id="0" />
        <mxCell id="1" parent="0" />
        <mxCell id="AqdaivmpAqv5e9tSUOuD-23" value="" style="endArrow=classic;html=1;rounded=0;entryX=1;entryY=0.5;entryDx=0;entryDy=0;" edge="1" parent="1" target="AqdaivmpAqv5e9tSUOuD-21">
          <mxGeometry width="50" height="50" relative="1" as="geometry">
            <mxPoint x="730" y="450" as="sourcePoint" />
            <mxPoint x="550" y="270" as="targetPoint" />
          </mxGeometry>
        </mxCell>
        <mxCell id="AqdaivmpAqv5e9tSUOuD-24" value="支付成功" style="edgeLabel;html=1;align=center;verticalAlign=middle;resizable=0;points=[];" vertex="1" connectable="0" parent="AqdaivmpAqv5e9tSUOuD-23">
          <mxGeometry x="0.1886" y="2" relative="1" as="geometry">
            <mxPoint as="offset" />
          </mxGeometry>
        </mxCell>
        <mxCell id="77e6c97f196da883-1" value="天创信用提额" style="swimlane;html=1;childLayout=stackLayout;startSize=20;rounded=0;shadow=0;labelBackgroundColor=none;strokeWidth=1;fontFamily=Verdana;fontSize=8;align=center;" parent="1" vertex="1">
          <mxGeometry x="-50" y="10" width="1170" height="980" as="geometry" />
        </mxCell>
        <mxCell id="77e6c97f196da883-2" value="" style="swimlane;html=1;startSize=20;" parent="77e6c97f196da883-1" vertex="1">
          <mxGeometry y="20" width="380" height="960" as="geometry">
            <mxRectangle y="20" width="50" height="730" as="alternateBounds" />
          </mxGeometry>
        </mxCell>
        <mxCell id="77e6c97f196da883-8" value="报告落地页" style="rounded=1;whiteSpace=wrap;html=1;shadow=0;labelBackgroundColor=none;strokeWidth=1;fontFamily=Verdana;fontSize=8;align=center;" parent="77e6c97f196da883-2" vertex="1">
          <mxGeometry x="20" y="65" width="80" height="35" as="geometry" />
        </mxCell>
        <mxCell id="77e6c97f196da883-9" value="落地页展示" style="rounded=1;whiteSpace=wrap;html=1;shadow=0;labelBackgroundColor=none;strokeWidth=1;fontFamily=Verdana;fontSize=8;align=center;" parent="77e6c97f196da883-2" vertex="1">
          <mxGeometry x="20" y="130" width="80" height="40" as="geometry" />
        </mxCell>
        <mxCell id="77e6c97f196da883-3" value="pretii" style="swimlane;html=1;startSize=20;" parent="77e6c97f196da883-2" vertex="1">
          <mxGeometry x="160" width="220" height="890" as="geometry">
            <mxRectangle x="160" width="70" height="30" as="alternateBounds" />
          </mxGeometry>
        </mxCell>
        <mxCell id="77e6c97f196da883-11" value="返回信用报告的页面配置信息&lt;br&gt;协议连接" style="rounded=1;whiteSpace=wrap;html=1;shadow=0;labelBackgroundColor=none;strokeWidth=1;fontFamily=Verdana;fontSize=8;align=center;" parent="77e6c97f196da883-3" vertex="1">
          <mxGeometry x="30" y="65" width="120" height="45" as="geometry" />
        </mxCell>
        <mxCell id="AqdaivmpAqv5e9tSUOuD-6" value="获取收银台链接" style="rounded=1;whiteSpace=wrap;html=1;shadow=0;labelBackgroundColor=none;strokeWidth=1;fontFamily=Verdana;fontSize=8;align=center;" vertex="1" parent="77e6c97f196da883-3">
          <mxGeometry x="40" y="200" width="80" height="40" as="geometry" />
        </mxCell>
        <mxCell id="AqdaivmpAqv5e9tSUOuD-13" value="收银台支付链接" style="rounded=1;whiteSpace=wrap;html=1;shadow=0;labelBackgroundColor=none;strokeWidth=1;fontFamily=Verdana;fontSize=8;align=center;" vertex="1" parent="77e6c97f196da883-3">
          <mxGeometry x="40" y="260" width="80" height="40" as="geometry" />
        </mxCell>
        <mxCell id="77e6c97f196da883-26" style="edgeStyle=orthogonalEdgeStyle;rounded=1;html=1;labelBackgroundColor=none;startArrow=none;startFill=0;startSize=5;endArrow=classicThin;endFill=1;endSize=5;jettySize=auto;orthogonalLoop=1;strokeWidth=1;fontFamily=Verdana;fontSize=8" parent="77e6c97f196da883-2" source="77e6c97f196da883-8" target="77e6c97f196da883-11" edge="1">
          <mxGeometry relative="1" as="geometry" />
        </mxCell>
        <mxCell id="AqdaivmpAqv5e9tSUOuD-3" value="xinyonginfo/config&lt;br&gt;xinyonginfo/protocol" style="edgeLabel;html=1;align=center;verticalAlign=middle;resizable=0;points=[];" vertex="1" connectable="0" parent="77e6c97f196da883-26">
          <mxGeometry x="-0.203" y="1" relative="1" as="geometry">
            <mxPoint as="offset" />
          </mxGeometry>
        </mxCell>
        <mxCell id="77e6c97f196da883-27" style="edgeStyle=orthogonalEdgeStyle;rounded=1;html=1;labelBackgroundColor=none;startArrow=none;startFill=0;startSize=5;endArrow=classicThin;endFill=1;endSize=5;jettySize=auto;orthogonalLoop=1;strokeWidth=1;fontFamily=Verdana;fontSize=8" parent="77e6c97f196da883-2" source="77e6c97f196da883-11" target="77e6c97f196da883-9" edge="1">
          <mxGeometry relative="1" as="geometry">
            <Array as="points">
              <mxPoint x="240" y="150" />
            </Array>
          </mxGeometry>
        </mxCell>
        <mxCell id="AqdaivmpAqv5e9tSUOuD-7" value="" style="edgeStyle=orthogonalEdgeStyle;rounded=0;orthogonalLoop=1;jettySize=auto;html=1;" edge="1" parent="77e6c97f196da883-2" source="AqdaivmpAqv5e9tSUOuD-5" target="AqdaivmpAqv5e9tSUOuD-6">
          <mxGeometry relative="1" as="geometry" />
        </mxCell>
        <mxCell id="AqdaivmpAqv5e9tSUOuD-8" value="xinyonginfo/unionUrl" style="edgeLabel;html=1;align=center;verticalAlign=middle;resizable=0;points=[];" vertex="1" connectable="0" parent="AqdaivmpAqv5e9tSUOuD-7">
          <mxGeometry x="-0.2711" y="1" relative="1" as="geometry">
            <mxPoint as="offset" />
          </mxGeometry>
        </mxCell>
        <mxCell id="AqdaivmpAqv5e9tSUOuD-5" value="支付" style="rounded=1;whiteSpace=wrap;html=1;shadow=0;labelBackgroundColor=none;strokeWidth=1;fontFamily=Verdana;fontSize=8;align=center;" vertex="1" parent="77e6c97f196da883-2">
          <mxGeometry x="25" y="200" width="80" height="40" as="geometry" />
        </mxCell>
        <mxCell id="AqdaivmpAqv5e9tSUOuD-15" value="" style="edgeStyle=orthogonalEdgeStyle;rounded=0;orthogonalLoop=1;jettySize=auto;html=1;entryX=1;entryY=0.5;entryDx=0;entryDy=0;" edge="1" parent="77e6c97f196da883-2" source="AqdaivmpAqv5e9tSUOuD-13" target="AqdaivmpAqv5e9tSUOuD-16">
          <mxGeometry relative="1" as="geometry">
            <mxPoint x="140" y="279.9999999999999" as="targetPoint" />
          </mxGeometry>
        </mxCell>
        <mxCell id="AqdaivmpAqv5e9tSUOuD-16" value="支付链接" style="rounded=1;whiteSpace=wrap;html=1;shadow=0;labelBackgroundColor=none;strokeWidth=1;fontFamily=Verdana;fontSize=8;align=center;" vertex="1" parent="77e6c97f196da883-2">
          <mxGeometry x="30" y="260" width="80" height="40" as="geometry" />
        </mxCell>
        <mxCell id="AqdaivmpAqv5e9tSUOuD-20" style="edgeStyle=orthogonalEdgeStyle;rounded=0;orthogonalLoop=1;jettySize=auto;html=1;exitX=1;exitY=0.5;exitDx=0;exitDy=0;" edge="1" parent="77e6c97f196da883-2" source="AqdaivmpAqv5e9tSUOuD-17">
          <mxGeometry relative="1" as="geometry">
            <mxPoint x="730" y="345" as="targetPoint" />
          </mxGeometry>
        </mxCell>
        <mxCell id="AqdaivmpAqv5e9tSUOuD-17" value="请求支付宝链接" style="rounded=1;whiteSpace=wrap;html=1;shadow=0;labelBackgroundColor=none;strokeWidth=1;fontFamily=Verdana;fontSize=8;align=center;" vertex="1" parent="77e6c97f196da883-2">
          <mxGeometry x="30" y="325" width="80" height="40" as="geometry" />
        </mxCell>
        <mxCell id="AqdaivmpAqv5e9tSUOuD-29" value="pretii-web" style="text;html=1;strokeColor=none;fillColor=none;align=center;verticalAlign=middle;whiteSpace=wrap;rounded=0;" vertex="1" parent="77e6c97f196da883-2">
          <mxGeometry x="30" width="60" height="30" as="geometry" />
        </mxCell>
        <mxCell id="77e6c97f196da883-5" value="天创信用-服务端" style="swimlane;html=1;startSize=20;" parent="77e6c97f196da883-1" vertex="1">
          <mxGeometry x="380" y="20" width="160" height="960" as="geometry" />
        </mxCell>
        <mxCell id="AqdaivmpAqv5e9tSUOuD-9" value="获取收银台链接" style="rounded=1;whiteSpace=wrap;html=1;shadow=0;labelBackgroundColor=none;strokeWidth=1;fontFamily=Verdana;fontSize=8;align=center;" vertex="1" parent="77e6c97f196da883-5">
          <mxGeometry x="40" y="200" width="80" height="40" as="geometry" />
        </mxCell>
        <mxCell id="AqdaivmpAqv5e9tSUOuD-21" value="支付宝支付成功" style="rounded=1;whiteSpace=wrap;html=1;shadow=0;labelBackgroundColor=none;strokeWidth=1;fontFamily=Verdana;fontSize=8;align=center;" vertex="1" parent="77e6c97f196da883-5">
          <mxGeometry x="50" y="400" width="80" height="40" as="geometry" />
        </mxCell>
        <mxCell id="77e6c97f196da883-6" value="天创信用-web" style="swimlane;html=1;startSize=20;" parent="77e6c97f196da883-1" vertex="1">
          <mxGeometry x="540" y="20" width="160" height="960" as="geometry" />
        </mxCell>
        <mxCell id="AqdaivmpAqv5e9tSUOuD-49" value="" style="edgeStyle=orthogonalEdgeStyle;rounded=0;orthogonalLoop=1;jettySize=auto;html=1;" edge="1" parent="77e6c97f196da883-6" source="AqdaivmpAqv5e9tSUOuD-47" target="AqdaivmpAqv5e9tSUOuD-48">
          <mxGeometry relative="1" as="geometry" />
        </mxCell>
        <mxCell id="AqdaivmpAqv5e9tSUOuD-47" value="验证手机号" style="rounded=1;whiteSpace=wrap;html=1;shadow=0;labelBackgroundColor=none;strokeWidth=1;fontFamily=Verdana;fontSize=8;align=center;" vertex="1" parent="77e6c97f196da883-6">
          <mxGeometry x="50" y="530" width="80" height="40" as="geometry" />
        </mxCell>
        <mxCell id="AqdaivmpAqv5e9tSUOuD-48" value="验证身份证号" style="rounded=1;whiteSpace=wrap;html=1;shadow=0;labelBackgroundColor=none;strokeWidth=1;fontFamily=Verdana;fontSize=8;align=center;" vertex="1" parent="77e6c97f196da883-6">
          <mxGeometry x="50" y="600" width="80" height="40" as="geometry" />
        </mxCell>
        <mxCell id="AqdaivmpAqv5e9tSUOuD-53" value="" style="edgeStyle=orthogonalEdgeStyle;rounded=0;orthogonalLoop=1;jettySize=auto;html=1;" edge="1" parent="77e6c97f196da883-6" source="AqdaivmpAqv5e9tSUOuD-50" target="AqdaivmpAqv5e9tSUOuD-52">
          <mxGeometry relative="1" as="geometry" />
        </mxCell>
        <mxCell id="AqdaivmpAqv5e9tSUOuD-50" value="人脸识别" style="rounded=1;whiteSpace=wrap;html=1;shadow=0;labelBackgroundColor=none;strokeWidth=1;fontFamily=Verdana;fontSize=8;align=center;" vertex="1" parent="77e6c97f196da883-6">
          <mxGeometry x="50" y="670" width="80" height="40" as="geometry" />
        </mxCell>
        <mxCell id="AqdaivmpAqv5e9tSUOuD-51" value="" style="edgeStyle=orthogonalEdgeStyle;rounded=0;orthogonalLoop=1;jettySize=auto;html=1;" edge="1" parent="77e6c97f196da883-6" source="AqdaivmpAqv5e9tSUOuD-48" target="AqdaivmpAqv5e9tSUOuD-50">
          <mxGeometry relative="1" as="geometry" />
        </mxCell>
        <mxCell id="AqdaivmpAqv5e9tSUOuD-55" value="" style="edgeStyle=orthogonalEdgeStyle;rounded=0;orthogonalLoop=1;jettySize=auto;html=1;" edge="1" parent="77e6c97f196da883-6" source="AqdaivmpAqv5e9tSUOuD-52" target="AqdaivmpAqv5e9tSUOuD-54">
          <mxGeometry relative="1" as="geometry" />
        </mxCell>
        <mxCell id="AqdaivmpAqv5e9tSUOuD-52" value="查看报告内容" style="rounded=1;whiteSpace=wrap;html=1;shadow=0;labelBackgroundColor=none;strokeWidth=1;fontFamily=Verdana;fontSize=8;align=center;" vertex="1" parent="77e6c97f196da883-6">
          <mxGeometry x="50" y="730" width="80" height="40" as="geometry" />
        </mxCell>
        <mxCell id="AqdaivmpAqv5e9tSUOuD-54" value="上传报告" style="rounded=1;whiteSpace=wrap;html=1;shadow=0;labelBackgroundColor=none;strokeWidth=1;fontFamily=Verdana;fontSize=8;align=center;" vertex="1" parent="77e6c97f196da883-6">
          <mxGeometry x="50" y="800" width="80" height="40" as="geometry" />
        </mxCell>
        <mxCell id="77e6c97f196da883-7" value="支付宝" style="swimlane;html=1;startSize=20;" parent="77e6c97f196da883-1" vertex="1">
          <mxGeometry x="700" y="20" width="160" height="960" as="geometry" />
        </mxCell>
        <mxCell id="AqdaivmpAqv5e9tSUOuD-19" value="唤起支付宝app，进行支付" style="rounded=1;whiteSpace=wrap;html=1;shadow=0;labelBackgroundColor=none;strokeWidth=1;fontFamily=Verdana;fontSize=8;align=center;" vertex="1" parent="77e6c97f196da883-7">
          <mxGeometry x="40" y="325" width="80" height="40" as="geometry" />
        </mxCell>
        <mxCell id="AqdaivmpAqv5e9tSUOuD-59" value="tcxy/reportViewCallback" style="text;html=1;align=center;verticalAlign=middle;resizable=0;points=[];autosize=1;strokeColor=none;fillColor=none;" vertex="1" parent="77e6c97f196da883-7">
          <mxGeometry x="10" y="720" width="150" height="30" as="geometry" />
        </mxCell>
        <mxCell id="AqdaivmpAqv5e9tSUOuD-10" value="" style="edgeStyle=orthogonalEdgeStyle;rounded=0;orthogonalLoop=1;jettySize=auto;html=1;" edge="1" parent="77e6c97f196da883-1" source="AqdaivmpAqv5e9tSUOuD-6" target="AqdaivmpAqv5e9tSUOuD-9">
          <mxGeometry relative="1" as="geometry" />
        </mxCell>
        <mxCell id="AqdaivmpAqv5e9tSUOuD-11" value="支付收银台" style="edgeLabel;html=1;align=center;verticalAlign=middle;resizable=0;points=[];" vertex="1" connectable="0" parent="AqdaivmpAqv5e9tSUOuD-10">
          <mxGeometry x="-0.3026" y="1" relative="1" as="geometry">
            <mxPoint x="12" y="1" as="offset" />
          </mxGeometry>
        </mxCell>
        <mxCell id="AqdaivmpAqv5e9tSUOuD-12" style="edgeStyle=orthogonalEdgeStyle;rounded=0;orthogonalLoop=1;jettySize=auto;html=1;exitX=0.5;exitY=1;exitDx=0;exitDy=0;entryX=1;entryY=0.5;entryDx=0;entryDy=0;" edge="1" parent="77e6c97f196da883-1" source="AqdaivmpAqv5e9tSUOuD-9" target="AqdaivmpAqv5e9tSUOuD-13">
          <mxGeometry relative="1" as="geometry">
            <mxPoint x="230" y="319.9999999999999" as="targetPoint" />
          </mxGeometry>
        </mxCell>
        <mxCell id="AqdaivmpAqv5e9tSUOuD-43" style="edgeStyle=orthogonalEdgeStyle;rounded=0;orthogonalLoop=1;jettySize=auto;html=1;entryX=-0.048;entryY=0.682;entryDx=0;entryDy=0;entryPerimeter=0;" edge="1" parent="77e6c97f196da883-1" source="AqdaivmpAqv5e9tSUOuD-21" target="AqdaivmpAqv5e9tSUOuD-42">
          <mxGeometry relative="1" as="geometry">
            <Array as="points">
              <mxPoint x="470" y="497" />
            </Array>
          </mxGeometry>
        </mxCell>
        <mxCell id="AqdaivmpAqv5e9tSUOuD-44" value="&lt;div style=&quot;background-color: rgb(43, 43, 43); color: rgb(169, 183, 198); font-family: &amp;quot;JetBrains Mono&amp;quot;, monospace; font-size: 11.3pt;&quot;&gt;&lt;br&gt;&lt;/div&gt;" style="edgeLabel;html=1;align=center;verticalAlign=middle;resizable=0;points=[];" vertex="1" connectable="0" parent="AqdaivmpAqv5e9tSUOuD-43">
          <mxGeometry x="-0.0258" y="-1" relative="1" as="geometry">
            <mxPoint as="offset" />
          </mxGeometry>
        </mxCell>
        <mxCell id="AqdaivmpAqv5e9tSUOuD-46" value="tcxy/payCallback" style="edgeLabel;html=1;align=center;verticalAlign=middle;resizable=0;points=[];" vertex="1" connectable="0" parent="AqdaivmpAqv5e9tSUOuD-43">
          <mxGeometry x="-0.118" relative="1" as="geometry">
            <mxPoint as="offset" />
          </mxGeometry>
        </mxCell>
        <mxCell id="AqdaivmpAqv5e9tSUOuD-37" value="pretii-openApi" style="swimlane;html=1;startSize=20;" vertex="1" parent="77e6c97f196da883-1">
          <mxGeometry x="860" y="20" width="160" height="960" as="geometry" />
        </mxCell>
        <mxCell id="AqdaivmpAqv5e9tSUOuD-42" value="写入txxy_report_info&lt;br&gt;初始化权益" style="rounded=1;whiteSpace=wrap;html=1;shadow=0;labelBackgroundColor=none;strokeWidth=1;fontFamily=Verdana;fontSize=8;align=center;" vertex="1" parent="AqdaivmpAqv5e9tSUOuD-37">
          <mxGeometry x="30" y="450" width="80" height="40" as="geometry" />
        </mxCell>
        <mxCell id="AqdaivmpAqv5e9tSUOuD-56" value="更新报告No和报告有效期" style="rounded=1;whiteSpace=wrap;html=1;shadow=0;labelBackgroundColor=none;strokeWidth=1;fontFamily=Verdana;fontSize=8;align=center;" vertex="1" parent="AqdaivmpAqv5e9tSUOuD-37">
          <mxGeometry x="50" y="730" width="80" height="40" as="geometry" />
        </mxCell>
        <mxCell id="AqdaivmpAqv5e9tSUOuD-60" value="上传报告内容到风控&lt;br&gt;提额&lt;br&gt;调用天下信用提额成功接口" style="rounded=1;whiteSpace=wrap;html=1;shadow=0;labelBackgroundColor=none;strokeWidth=1;fontFamily=Verdana;fontSize=8;align=center;" vertex="1" parent="AqdaivmpAqv5e9tSUOuD-37">
          <mxGeometry x="50" y="800" width="80" height="40" as="geometry" />
        </mxCell>
        <mxCell id="AqdaivmpAqv5e9tSUOuD-57" value="" style="edgeStyle=orthogonalEdgeStyle;rounded=0;orthogonalLoop=1;jettySize=auto;html=1;" edge="1" parent="77e6c97f196da883-1" source="AqdaivmpAqv5e9tSUOuD-52" target="AqdaivmpAqv5e9tSUOuD-56">
          <mxGeometry relative="1" as="geometry" />
        </mxCell>
        <mxCell id="AqdaivmpAqv5e9tSUOuD-61" value="tcxy/reportUserContentCallback" style="edgeStyle=orthogonalEdgeStyle;rounded=0;orthogonalLoop=1;jettySize=auto;html=1;" edge="1" parent="77e6c97f196da883-1" source="AqdaivmpAqv5e9tSUOuD-54" target="AqdaivmpAqv5e9tSUOuD-60">
          <mxGeometry relative="1" as="geometry" />
        </mxCell>
        <mxCell id="AqdaivmpAqv5e9tSUOuD-63" value="" style="edgeStyle=orthogonalEdgeStyle;rounded=0;orthogonalLoop=1;jettySize=auto;html=1;" edge="1" parent="77e6c97f196da883-1" source="AqdaivmpAqv5e9tSUOuD-60">
          <mxGeometry relative="1" as="geometry">
            <mxPoint x="490" y="920" as="targetPoint" />
            <Array as="points">
              <mxPoint x="950" y="920" />
            </Array>
          </mxGeometry>
        </mxCell>
        <mxCell id="AqdaivmpAqv5e9tSUOuD-64" value="提额成功" style="edgeLabel;html=1;align=center;verticalAlign=middle;resizable=0;points=[];" vertex="1" connectable="0" parent="AqdaivmpAqv5e9tSUOuD-63">
          <mxGeometry x="0.3344" y="2" relative="1" as="geometry">
            <mxPoint as="offset" />
          </mxGeometry>
        </mxCell>
      </root>
    </mxGraphModel>
  </diagram>
</mxfile>
